<mxfile host="app.diagrams.net" modified="2024-06-26T09:49:59.822Z" agent="Mozilla/5.0 (Macintosh; Intel Mac OS X 10_15_7) AppleWebKit/537.36 (KHTML, like Gecko) Chrome/126.0.0.0 Safari/537.36" etag="Nx0myZ_oL5NltBtn7Zf1" version="24.6.2" type="github" pages="2">
  <diagram name="第 1 页" id="BigGJyOWPHhynoeD0Nnt">
    <mxGraphModel dx="1332" dy="900" grid="0" gridSize="10" guides="1" tooltips="1" connect="1" arrows="1" fold="1" page="0" pageScale="1" pageWidth="827" pageHeight="1169" background="#ffffff" math="0" shadow="0">
      <root>
        <mxCell id="0" />
        <mxCell id="1" parent="0" />
        <mxCell id="Tjdrcr_WyXoiCkhcHN9--1" value="" style="edgeStyle=orthogonalEdgeStyle;rounded=0;orthogonalLoop=1;jettySize=auto;html=1;" edge="1" parent="1" source="Dfdj8npjzUzR_2U560MS-1" target="Dfdj8npjzUzR_2U560MS-21">
          <mxGeometry relative="1" as="geometry" />
        </mxCell>
        <mxCell id="Dfdj8npjzUzR_2U560MS-1" value="" style="rounded=0;whiteSpace=wrap;html=1;dashed=1;fillColor=#d5e8d4;strokeColor=#82b366;shadow=1;" vertex="1" parent="1">
          <mxGeometry x="200" y="200" width="650" height="90" as="geometry" />
        </mxCell>
        <mxCell id="Dfdj8npjzUzR_2U560MS-2" value="&lt;span style=&quot;font-size: 21px;&quot;&gt;3&lt;/span&gt;" style="whiteSpace=wrap;html=1;aspect=fixed;fillColor=#f8cecc;strokeColor=#b85450;shadow=1;" vertex="1" parent="1">
          <mxGeometry x="220" y="220" width="50" height="50" as="geometry" />
        </mxCell>
        <mxCell id="Dfdj8npjzUzR_2U560MS-4" value="&lt;font style=&quot;font-size: 21px;&quot;&gt;1&lt;/font&gt;" style="whiteSpace=wrap;html=1;aspect=fixed;fillColor=#ffe6cc;strokeColor=#d79b00;shadow=1;" vertex="1" parent="1">
          <mxGeometry x="300" y="220" width="50" height="50" as="geometry" />
        </mxCell>
        <mxCell id="Dfdj8npjzUzR_2U560MS-6" value="&lt;font style=&quot;font-size: 21px;&quot;&gt;0&lt;/font&gt;" style="whiteSpace=wrap;html=1;aspect=fixed;fillColor=#ffe6cc;strokeColor=#d79b00;shadow=1;" vertex="1" parent="1">
          <mxGeometry x="380" y="220" width="50" height="50" as="geometry" />
        </mxCell>
        <mxCell id="Dfdj8npjzUzR_2U560MS-8" value="&lt;font style=&quot;font-size: 21px;&quot;&gt;4&lt;/font&gt;" style="whiteSpace=wrap;html=1;aspect=fixed;fillColor=#ffe6cc;strokeColor=#d79b00;shadow=1;" vertex="1" parent="1">
          <mxGeometry x="460" y="220" width="50" height="50" as="geometry" />
        </mxCell>
        <mxCell id="Dfdj8npjzUzR_2U560MS-9" value="&lt;font style=&quot;font-size: 21px;&quot;&gt;5&lt;/font&gt;" style="whiteSpace=wrap;html=1;aspect=fixed;fillColor=#ffe6cc;strokeColor=#d79b00;shadow=1;" vertex="1" parent="1">
          <mxGeometry x="540" y="220" width="50" height="50" as="geometry" />
        </mxCell>
        <mxCell id="Dfdj8npjzUzR_2U560MS-10" value="&lt;span style=&quot;font-size: 21px;&quot;&gt;2&lt;/span&gt;" style="whiteSpace=wrap;html=1;aspect=fixed;fillColor=#ffe6cc;strokeColor=#d79b00;shadow=1;" vertex="1" parent="1">
          <mxGeometry x="620" y="220" width="50" height="50" as="geometry" />
        </mxCell>
        <mxCell id="Dfdj8npjzUzR_2U560MS-11" value="&lt;font style=&quot;font-size: 21px;&quot;&gt;9&lt;/font&gt;" style="whiteSpace=wrap;html=1;aspect=fixed;fillColor=#ffe6cc;strokeColor=#d79b00;shadow=1;" vertex="1" parent="1">
          <mxGeometry x="700" y="220" width="50" height="50" as="geometry" />
        </mxCell>
        <mxCell id="Dfdj8npjzUzR_2U560MS-12" value="&lt;font style=&quot;font-size: 21px;&quot;&gt;12&lt;/font&gt;" style="whiteSpace=wrap;html=1;aspect=fixed;fillColor=#ffe6cc;strokeColor=#d79b00;shadow=1;" vertex="1" parent="1">
          <mxGeometry x="777" y="220" width="50" height="50" as="geometry" />
        </mxCell>
        <mxCell id="Dfdj8npjzUzR_2U560MS-13" value="&lt;font style=&quot;font-size: 17px;&quot;&gt;基准值&lt;/font&gt;" style="text;html=1;align=center;verticalAlign=middle;resizable=0;points=[];autosize=1;strokeColor=none;fillColor=none;shadow=1;" vertex="1" parent="1">
          <mxGeometry x="210" y="148" width="70" height="30" as="geometry" />
        </mxCell>
        <mxCell id="Dfdj8npjzUzR_2U560MS-14" value="" style="endArrow=classic;html=1;rounded=0;exitX=0.467;exitY=1.083;exitDx=0;exitDy=0;exitPerimeter=0;entryX=0.5;entryY=0;entryDx=0;entryDy=0;shadow=1;" edge="1" parent="1" source="Dfdj8npjzUzR_2U560MS-13" target="Dfdj8npjzUzR_2U560MS-2">
          <mxGeometry width="50" height="50" relative="1" as="geometry">
            <mxPoint x="450" y="300" as="sourcePoint" />
            <mxPoint x="500" y="250" as="targetPoint" />
          </mxGeometry>
        </mxCell>
        <mxCell id="Dfdj8npjzUzR_2U560MS-16" value="" style="rounded=0;whiteSpace=wrap;html=1;dashed=1;fillColor=#d5e8d4;strokeColor=#82b366;shadow=1;" vertex="1" parent="1">
          <mxGeometry x="200" y="380" width="650" height="90" as="geometry" />
        </mxCell>
        <mxCell id="Dfdj8npjzUzR_2U560MS-17" value="&lt;span style=&quot;font-size: 21px;&quot;&gt;3&lt;/span&gt;" style="whiteSpace=wrap;html=1;aspect=fixed;fillColor=#f8cecc;strokeColor=#b85450;shadow=1;" vertex="1" parent="1">
          <mxGeometry x="220" y="400" width="50" height="50" as="geometry" />
        </mxCell>
        <mxCell id="Dfdj8npjzUzR_2U560MS-18" value="&lt;font style=&quot;font-size: 21px;&quot;&gt;1&lt;/font&gt;" style="whiteSpace=wrap;html=1;aspect=fixed;fillColor=#ffe6cc;strokeColor=#d79b00;shadow=1;" vertex="1" parent="1">
          <mxGeometry x="300" y="400" width="50" height="50" as="geometry" />
        </mxCell>
        <mxCell id="Dfdj8npjzUzR_2U560MS-19" value="&lt;font style=&quot;font-size: 21px;&quot;&gt;0&lt;/font&gt;" style="whiteSpace=wrap;html=1;aspect=fixed;fillColor=#ffe6cc;strokeColor=#d79b00;shadow=1;" vertex="1" parent="1">
          <mxGeometry x="380" y="400" width="50" height="50" as="geometry" />
        </mxCell>
        <mxCell id="Dfdj8npjzUzR_2U560MS-20" value="&lt;font style=&quot;font-size: 21px;&quot;&gt;4&lt;/font&gt;" style="whiteSpace=wrap;html=1;aspect=fixed;fillColor=#ffe6cc;strokeColor=#d79b00;shadow=1;" vertex="1" parent="1">
          <mxGeometry x="460" y="400" width="50" height="50" as="geometry" />
        </mxCell>
        <mxCell id="Dfdj8npjzUzR_2U560MS-21" value="&lt;font style=&quot;font-size: 21px;&quot;&gt;5&lt;/font&gt;" style="whiteSpace=wrap;html=1;aspect=fixed;fillColor=#ffe6cc;strokeColor=#d79b00;shadow=1;" vertex="1" parent="1">
          <mxGeometry x="540" y="400" width="50" height="50" as="geometry" />
        </mxCell>
        <mxCell id="Dfdj8npjzUzR_2U560MS-22" value="&lt;span style=&quot;font-size: 21px;&quot;&gt;2&lt;/span&gt;" style="whiteSpace=wrap;html=1;aspect=fixed;fillColor=#ffe6cc;strokeColor=#d79b00;shadow=1;" vertex="1" parent="1">
          <mxGeometry x="620" y="400" width="50" height="50" as="geometry" />
        </mxCell>
        <mxCell id="Dfdj8npjzUzR_2U560MS-23" value="&lt;font style=&quot;font-size: 21px;&quot;&gt;9&lt;/font&gt;" style="whiteSpace=wrap;html=1;aspect=fixed;fillColor=#ffe6cc;strokeColor=#d79b00;shadow=1;" vertex="1" parent="1">
          <mxGeometry x="700" y="400" width="50" height="50" as="geometry" />
        </mxCell>
        <mxCell id="Dfdj8npjzUzR_2U560MS-24" value="&lt;font style=&quot;font-size: 21px;&quot;&gt;12&lt;/font&gt;" style="whiteSpace=wrap;html=1;aspect=fixed;fillColor=#ffe6cc;strokeColor=#d79b00;shadow=1;" vertex="1" parent="1">
          <mxGeometry x="777" y="400" width="50" height="50" as="geometry" />
        </mxCell>
        <mxCell id="Dfdj8npjzUzR_2U560MS-25" value="" style="shape=flexArrow;endArrow=classic;html=1;rounded=0;fillColor=#dae8fc;strokeColor=#6c8ebf;shadow=1;" edge="1" parent="1">
          <mxGeometry width="50" height="50" relative="1" as="geometry">
            <mxPoint x="524.5" y="300" as="sourcePoint" />
            <mxPoint x="524.5" y="370" as="targetPoint" />
          </mxGeometry>
        </mxCell>
        <mxCell id="Dfdj8npjzUzR_2U560MS-28" value="" style="endArrow=classic;html=1;rounded=0;exitX=0.5;exitY=0;exitDx=0;exitDy=0;entryX=0.5;entryY=0;entryDx=0;entryDy=0;curved=1;shadow=1;" edge="1" parent="1" source="Dfdj8npjzUzR_2U560MS-20" target="Dfdj8npjzUzR_2U560MS-22">
          <mxGeometry width="50" height="50" relative="1" as="geometry">
            <mxPoint x="440" y="430" as="sourcePoint" />
            <mxPoint x="490" y="380" as="targetPoint" />
            <Array as="points">
              <mxPoint x="560" y="342" />
            </Array>
          </mxGeometry>
        </mxCell>
        <mxCell id="Dfdj8npjzUzR_2U560MS-29" value="" style="endArrow=classic;html=1;rounded=0;entryX=0.25;entryY=1;entryDx=0;entryDy=0;curved=1;shadow=1;" edge="1" parent="1" target="Dfdj8npjzUzR_2U560MS-20">
          <mxGeometry width="50" height="50" relative="1" as="geometry">
            <mxPoint x="640" y="450" as="sourcePoint" />
            <mxPoint x="480" y="440" as="targetPoint" />
            <Array as="points">
              <mxPoint x="565" y="502" />
            </Array>
          </mxGeometry>
        </mxCell>
        <mxCell id="Dfdj8npjzUzR_2U560MS-30" value="&lt;font style=&quot;font-size: 19px;&quot;&gt;swap&lt;/font&gt;" style="text;html=1;align=center;verticalAlign=middle;resizable=0;points=[];autosize=1;strokeColor=none;fillColor=none;shadow=1;" vertex="1" parent="1">
          <mxGeometry x="571" y="316" width="70" height="40" as="geometry" />
        </mxCell>
        <mxCell id="Dfdj8npjzUzR_2U560MS-47" value="" style="rounded=0;whiteSpace=wrap;html=1;dashed=1;fillColor=#d5e8d4;strokeColor=#82b366;shadow=1;" vertex="1" parent="1">
          <mxGeometry x="202" y="794" width="650" height="90" as="geometry" />
        </mxCell>
        <mxCell id="Dfdj8npjzUzR_2U560MS-48" value="&lt;span style=&quot;font-size: 21px;&quot;&gt;2&lt;/span&gt;" style="whiteSpace=wrap;html=1;aspect=fixed;fillColor=#ffe6cc;strokeColor=#d79b00;shadow=1;" vertex="1" parent="1">
          <mxGeometry x="222" y="814" width="50" height="50" as="geometry" />
        </mxCell>
        <mxCell id="Dfdj8npjzUzR_2U560MS-49" value="&lt;font style=&quot;font-size: 21px;&quot;&gt;1&lt;/font&gt;" style="whiteSpace=wrap;html=1;aspect=fixed;fillColor=#ffe6cc;strokeColor=#d79b00;shadow=1;" vertex="1" parent="1">
          <mxGeometry x="302" y="814" width="50" height="50" as="geometry" />
        </mxCell>
        <mxCell id="Dfdj8npjzUzR_2U560MS-50" value="&lt;font style=&quot;font-size: 21px;&quot;&gt;0&lt;/font&gt;" style="whiteSpace=wrap;html=1;aspect=fixed;fillColor=#ffe6cc;strokeColor=#d79b00;shadow=1;" vertex="1" parent="1">
          <mxGeometry x="382" y="814" width="50" height="50" as="geometry" />
        </mxCell>
        <mxCell id="Dfdj8npjzUzR_2U560MS-51" value="&lt;span style=&quot;font-size: 21px;&quot;&gt;5&lt;/span&gt;" style="whiteSpace=wrap;html=1;aspect=fixed;fillColor=#ffe6cc;strokeColor=#d79b00;shadow=1;" vertex="1" parent="1">
          <mxGeometry x="542" y="814" width="50" height="50" as="geometry" />
        </mxCell>
        <mxCell id="Dfdj8npjzUzR_2U560MS-52" value="&lt;span style=&quot;font-size: 21px;&quot;&gt;3&lt;/span&gt;" style="whiteSpace=wrap;html=1;aspect=fixed;dashed=1;shadow=1;" vertex="1" parent="1">
          <mxGeometry x="462" y="814" width="50" height="50" as="geometry" />
        </mxCell>
        <mxCell id="Dfdj8npjzUzR_2U560MS-53" value="&lt;span style=&quot;font-size: 21px;&quot;&gt;4&lt;/span&gt;" style="whiteSpace=wrap;html=1;aspect=fixed;fillColor=#ffe6cc;strokeColor=#d79b00;shadow=1;" vertex="1" parent="1">
          <mxGeometry x="622" y="814" width="50" height="50" as="geometry" />
        </mxCell>
        <mxCell id="Dfdj8npjzUzR_2U560MS-54" value="&lt;font style=&quot;font-size: 21px;&quot;&gt;9&lt;/font&gt;" style="whiteSpace=wrap;html=1;aspect=fixed;fillColor=#ffe6cc;strokeColor=#d79b00;shadow=1;" vertex="1" parent="1">
          <mxGeometry x="702" y="814" width="50" height="50" as="geometry" />
        </mxCell>
        <mxCell id="Dfdj8npjzUzR_2U560MS-55" value="&lt;font style=&quot;font-size: 21px;&quot;&gt;12&lt;/font&gt;" style="whiteSpace=wrap;html=1;aspect=fixed;fillColor=#ffe6cc;strokeColor=#d79b00;shadow=1;" vertex="1" parent="1">
          <mxGeometry x="779" y="814" width="50" height="50" as="geometry" />
        </mxCell>
        <mxCell id="Dfdj8npjzUzR_2U560MS-56" value="" style="shape=flexArrow;endArrow=classic;html=1;rounded=0;fillColor=#dae8fc;strokeColor=#6c8ebf;shadow=1;" edge="1" parent="1">
          <mxGeometry width="50" height="50" relative="1" as="geometry">
            <mxPoint x="361.5" y="904" as="sourcePoint" />
            <mxPoint x="361.5" y="974" as="targetPoint" />
          </mxGeometry>
        </mxCell>
        <mxCell id="Dfdj8npjzUzR_2U560MS-58" value="" style="shape=flexArrow;endArrow=classic;html=1;rounded=0;fillColor=#dae8fc;strokeColor=#6c8ebf;shadow=1;" edge="1" parent="1">
          <mxGeometry width="50" height="50" relative="1" as="geometry">
            <mxPoint x="732" y="904" as="sourcePoint" />
            <mxPoint x="732" y="974" as="targetPoint" />
          </mxGeometry>
        </mxCell>
        <mxCell id="Dfdj8npjzUzR_2U560MS-63" value="" style="rounded=0;whiteSpace=wrap;html=1;dashed=1;fillColor=#d5e8d4;strokeColor=#82b366;shadow=1;" vertex="1" parent="1">
          <mxGeometry x="202" y="984" width="247" height="90" as="geometry" />
        </mxCell>
        <mxCell id="Dfdj8npjzUzR_2U560MS-59" value="&lt;span style=&quot;font-size: 21px;&quot;&gt;2&lt;/span&gt;" style="whiteSpace=wrap;html=1;aspect=fixed;fillColor=#f8cecc;strokeColor=#b85450;shadow=1;" vertex="1" parent="1">
          <mxGeometry x="217" y="1004" width="50" height="50" as="geometry" />
        </mxCell>
        <mxCell id="Dfdj8npjzUzR_2U560MS-60" value="&lt;font style=&quot;font-size: 21px;&quot;&gt;1&lt;/font&gt;" style="whiteSpace=wrap;html=1;aspect=fixed;fillColor=#ffe6cc;strokeColor=#d79b00;shadow=1;" vertex="1" parent="1">
          <mxGeometry x="297" y="1004" width="50" height="50" as="geometry" />
        </mxCell>
        <mxCell id="Dfdj8npjzUzR_2U560MS-61" value="&lt;font style=&quot;font-size: 21px;&quot;&gt;0&lt;/font&gt;" style="whiteSpace=wrap;html=1;aspect=fixed;fillColor=#ffe6cc;strokeColor=#d79b00;shadow=1;" vertex="1" parent="1">
          <mxGeometry x="377" y="1004" width="50" height="50" as="geometry" />
        </mxCell>
        <mxCell id="Dfdj8npjzUzR_2U560MS-65" value="" style="rounded=0;whiteSpace=wrap;html=1;dashed=1;fillColor=#d5e8d4;strokeColor=#82b366;shadow=1;" vertex="1" parent="1">
          <mxGeometry x="532" y="984" width="320" height="90" as="geometry" />
        </mxCell>
        <mxCell id="Dfdj8npjzUzR_2U560MS-67" value="&lt;span style=&quot;font-size: 21px;&quot;&gt;4&lt;/span&gt;" style="whiteSpace=wrap;html=1;aspect=fixed;fillColor=#ffe6cc;strokeColor=#d79b00;shadow=1;" vertex="1" parent="1">
          <mxGeometry x="623.5" y="1004" width="50" height="50" as="geometry" />
        </mxCell>
        <mxCell id="Dfdj8npjzUzR_2U560MS-68" value="&lt;font style=&quot;font-size: 21px;&quot;&gt;9&lt;/font&gt;" style="whiteSpace=wrap;html=1;aspect=fixed;fillColor=#ffe6cc;strokeColor=#d79b00;shadow=1;" vertex="1" parent="1">
          <mxGeometry x="703.5" y="1004" width="50" height="50" as="geometry" />
        </mxCell>
        <mxCell id="Dfdj8npjzUzR_2U560MS-69" value="&lt;font style=&quot;font-size: 21px;&quot;&gt;12&lt;/font&gt;" style="whiteSpace=wrap;html=1;aspect=fixed;fillColor=#ffe6cc;strokeColor=#d79b00;shadow=1;" vertex="1" parent="1">
          <mxGeometry x="780.5" y="1004" width="50" height="50" as="geometry" />
        </mxCell>
        <mxCell id="Dfdj8npjzUzR_2U560MS-70" value="" style="shape=flexArrow;endArrow=classic;html=1;rounded=0;fillColor=#dae8fc;strokeColor=#6c8ebf;shadow=1;" edge="1" parent="1">
          <mxGeometry width="50" height="50" relative="1" as="geometry">
            <mxPoint x="526.5" y="724" as="sourcePoint" />
            <mxPoint x="526.5" y="794" as="targetPoint" />
          </mxGeometry>
        </mxCell>
        <mxCell id="Dfdj8npjzUzR_2U560MS-71" value="" style="shape=flexArrow;endArrow=classic;html=1;rounded=0;fillColor=#dae8fc;strokeColor=#6c8ebf;shadow=1;" edge="1" parent="1">
          <mxGeometry width="50" height="50" relative="1" as="geometry">
            <mxPoint x="551.5" y="1129" as="sourcePoint" />
            <mxPoint x="552" y="1189" as="targetPoint" />
          </mxGeometry>
        </mxCell>
        <mxCell id="Dfdj8npjzUzR_2U560MS-75" value="。。。。。。" style="text;html=1;align=center;verticalAlign=middle;resizable=0;points=[];autosize=1;strokeColor=none;fillColor=none;fontSize=20;shadow=1;" vertex="1" parent="1">
          <mxGeometry x="482" y="1084" width="140" height="40" as="geometry" />
        </mxCell>
        <mxCell id="Dfdj8npjzUzR_2U560MS-88" value="" style="rounded=0;whiteSpace=wrap;html=1;dashed=1;fillColor=#d5e8d4;strokeColor=#82b366;shadow=1;" vertex="1" parent="1">
          <mxGeometry x="202" y="1194" width="650" height="90" as="geometry" />
        </mxCell>
        <mxCell id="Dfdj8npjzUzR_2U560MS-89" value="&lt;span style=&quot;font-size: 21px;&quot;&gt;0&lt;/span&gt;" style="whiteSpace=wrap;html=1;aspect=fixed;fillColor=#dae8fc;strokeColor=#6c8ebf;shadow=1;" vertex="1" parent="1">
          <mxGeometry x="222" y="1214" width="50" height="50" as="geometry" />
        </mxCell>
        <mxCell id="Dfdj8npjzUzR_2U560MS-90" value="&lt;font style=&quot;font-size: 21px;&quot;&gt;1&lt;/font&gt;" style="whiteSpace=wrap;html=1;aspect=fixed;fillColor=#dae8fc;strokeColor=#6c8ebf;shadow=1;" vertex="1" parent="1">
          <mxGeometry x="302" y="1214" width="50" height="50" as="geometry" />
        </mxCell>
        <mxCell id="Dfdj8npjzUzR_2U560MS-91" value="&lt;font style=&quot;font-size: 21px;&quot;&gt;2&lt;/font&gt;" style="whiteSpace=wrap;html=1;aspect=fixed;fillColor=#dae8fc;strokeColor=#6c8ebf;shadow=1;" vertex="1" parent="1">
          <mxGeometry x="382" y="1214" width="50" height="50" as="geometry" />
        </mxCell>
        <mxCell id="Dfdj8npjzUzR_2U560MS-92" value="&lt;font style=&quot;font-size: 21px;&quot;&gt;3&lt;/font&gt;" style="whiteSpace=wrap;html=1;aspect=fixed;fillColor=#dae8fc;strokeColor=#6c8ebf;shadow=1;" vertex="1" parent="1">
          <mxGeometry x="462" y="1214" width="50" height="50" as="geometry" />
        </mxCell>
        <mxCell id="Dfdj8npjzUzR_2U560MS-93" value="&lt;font style=&quot;font-size: 21px;&quot;&gt;4&lt;/font&gt;" style="whiteSpace=wrap;html=1;aspect=fixed;fillColor=#dae8fc;strokeColor=#6c8ebf;shadow=1;" vertex="1" parent="1">
          <mxGeometry x="542" y="1214" width="50" height="50" as="geometry" />
        </mxCell>
        <mxCell id="Dfdj8npjzUzR_2U560MS-94" value="&lt;span style=&quot;font-size: 21px;&quot;&gt;5&lt;/span&gt;" style="whiteSpace=wrap;html=1;aspect=fixed;fillColor=#dae8fc;strokeColor=#6c8ebf;shadow=1;" vertex="1" parent="1">
          <mxGeometry x="622" y="1214" width="50" height="50" as="geometry" />
        </mxCell>
        <mxCell id="Dfdj8npjzUzR_2U560MS-95" value="&lt;font style=&quot;font-size: 21px;&quot;&gt;9&lt;/font&gt;" style="whiteSpace=wrap;html=1;aspect=fixed;fillColor=#dae8fc;strokeColor=#6c8ebf;shadow=1;" vertex="1" parent="1">
          <mxGeometry x="702" y="1214" width="50" height="50" as="geometry" />
        </mxCell>
        <mxCell id="Dfdj8npjzUzR_2U560MS-96" value="&lt;font style=&quot;font-size: 21px;&quot;&gt;12&lt;/font&gt;" style="whiteSpace=wrap;html=1;aspect=fixed;fillColor=#dae8fc;strokeColor=#6c8ebf;shadow=1;" vertex="1" parent="1">
          <mxGeometry x="779" y="1214" width="50" height="50" as="geometry" />
        </mxCell>
        <mxCell id="Dfdj8npjzUzR_2U560MS-99" value="" style="rounded=0;whiteSpace=wrap;html=1;dashed=1;fillColor=#d5e8d4;strokeColor=#82b366;shadow=1;" vertex="1" parent="1">
          <mxGeometry x="202" y="604" width="650" height="90" as="geometry" />
        </mxCell>
        <mxCell id="Dfdj8npjzUzR_2U560MS-100" value="&lt;span style=&quot;font-size: 21px;&quot;&gt;3&lt;/span&gt;" style="whiteSpace=wrap;html=1;aspect=fixed;fillColor=#f8cecc;strokeColor=#b85450;shadow=1;" vertex="1" parent="1">
          <mxGeometry x="222" y="624" width="50" height="50" as="geometry" />
        </mxCell>
        <mxCell id="Dfdj8npjzUzR_2U560MS-101" value="&lt;font style=&quot;font-size: 21px;&quot;&gt;1&lt;/font&gt;" style="whiteSpace=wrap;html=1;aspect=fixed;fillColor=#ffe6cc;strokeColor=#d79b00;shadow=1;" vertex="1" parent="1">
          <mxGeometry x="302" y="624" width="50" height="50" as="geometry" />
        </mxCell>
        <mxCell id="Dfdj8npjzUzR_2U560MS-102" value="&lt;font style=&quot;font-size: 21px;&quot;&gt;0&lt;/font&gt;" style="whiteSpace=wrap;html=1;aspect=fixed;fillColor=#ffe6cc;strokeColor=#d79b00;shadow=1;" vertex="1" parent="1">
          <mxGeometry x="382" y="624" width="50" height="50" as="geometry" />
        </mxCell>
        <mxCell id="Dfdj8npjzUzR_2U560MS-103" value="&lt;span style=&quot;font-size: 21px;&quot;&gt;2&lt;/span&gt;" style="whiteSpace=wrap;html=1;aspect=fixed;fillColor=#ffe6cc;strokeColor=#d79b00;shadow=1;" vertex="1" parent="1">
          <mxGeometry x="462" y="624" width="50" height="50" as="geometry" />
        </mxCell>
        <mxCell id="Dfdj8npjzUzR_2U560MS-104" value="&lt;span style=&quot;font-size: 21px;&quot;&gt;5&lt;/span&gt;" style="whiteSpace=wrap;html=1;aspect=fixed;fillColor=#ffe6cc;strokeColor=#d79b00;shadow=1;" vertex="1" parent="1">
          <mxGeometry x="542" y="624" width="50" height="50" as="geometry" />
        </mxCell>
        <mxCell id="Dfdj8npjzUzR_2U560MS-105" value="&lt;span style=&quot;font-size: 21px;&quot;&gt;4&lt;/span&gt;" style="whiteSpace=wrap;html=1;aspect=fixed;fillColor=#ffe6cc;strokeColor=#d79b00;shadow=1;" vertex="1" parent="1">
          <mxGeometry x="622" y="624" width="50" height="50" as="geometry" />
        </mxCell>
        <mxCell id="Dfdj8npjzUzR_2U560MS-106" value="&lt;font style=&quot;font-size: 21px;&quot;&gt;9&lt;/font&gt;" style="whiteSpace=wrap;html=1;aspect=fixed;fillColor=#ffe6cc;strokeColor=#d79b00;shadow=1;" vertex="1" parent="1">
          <mxGeometry x="702" y="624" width="50" height="50" as="geometry" />
        </mxCell>
        <mxCell id="Dfdj8npjzUzR_2U560MS-107" value="&lt;font style=&quot;font-size: 21px;&quot;&gt;12&lt;/font&gt;" style="whiteSpace=wrap;html=1;aspect=fixed;fillColor=#ffe6cc;strokeColor=#d79b00;shadow=1;" vertex="1" parent="1">
          <mxGeometry x="779" y="624" width="50" height="50" as="geometry" />
        </mxCell>
        <mxCell id="Dfdj8npjzUzR_2U560MS-108" value="" style="shape=flexArrow;endArrow=classic;html=1;rounded=0;fillColor=#dae8fc;strokeColor=#6c8ebf;shadow=1;" edge="1" parent="1">
          <mxGeometry width="50" height="50" relative="1" as="geometry">
            <mxPoint x="526.5" y="514" as="sourcePoint" />
            <mxPoint x="526.5" y="584" as="targetPoint" />
          </mxGeometry>
        </mxCell>
        <mxCell id="Dfdj8npjzUzR_2U560MS-113" value="" style="endArrow=classic;html=1;rounded=0;exitX=0.5;exitY=0;exitDx=0;exitDy=0;entryX=0.5;entryY=0;entryDx=0;entryDy=0;curved=1;shadow=1;" edge="1" parent="1" target="Dfdj8npjzUzR_2U560MS-103">
          <mxGeometry width="50" height="50" relative="1" as="geometry">
            <mxPoint x="247" y="624" as="sourcePoint" />
            <mxPoint x="407" y="624" as="targetPoint" />
            <Array as="points">
              <mxPoint x="392" y="524" />
            </Array>
          </mxGeometry>
        </mxCell>
        <mxCell id="Dfdj8npjzUzR_2U560MS-114" value="" style="endArrow=classic;html=1;rounded=0;entryX=0.25;entryY=1;entryDx=0;entryDy=0;curved=1;exitX=0.5;exitY=1;exitDx=0;exitDy=0;shadow=1;" edge="1" parent="1" source="Dfdj8npjzUzR_2U560MS-103">
          <mxGeometry width="50" height="50" relative="1" as="geometry">
            <mxPoint x="410.5" y="674" as="sourcePoint" />
            <mxPoint x="243.5" y="674" as="targetPoint" />
            <Array as="points">
              <mxPoint x="402" y="784" />
            </Array>
          </mxGeometry>
        </mxCell>
        <mxCell id="Dfdj8npjzUzR_2U560MS-115" value="&lt;font style=&quot;font-size: 19px;&quot;&gt;swap&lt;/font&gt;" style="text;html=1;align=center;verticalAlign=middle;resizable=0;points=[];autosize=1;strokeColor=none;fillColor=none;shadow=1;" vertex="1" parent="1">
          <mxGeometry x="362" y="534" width="70" height="40" as="geometry" />
        </mxCell>
        <mxCell id="Dfdj8npjzUzR_2U560MS-116" value="made&lt;div style=&quot;font-size: 15px;&quot;&gt;by&lt;/div&gt;&lt;div style=&quot;font-size: 15px;&quot;&gt;ymh&lt;/div&gt;&lt;div style=&quot;font-size: 15px;&quot;&gt;&lt;br style=&quot;font-size: 15px;&quot;&gt;&lt;/div&gt;" style="text;html=1;align=center;verticalAlign=middle;resizable=0;points=[];autosize=1;strokeColor=none;fillColor=none;fontSize=15;fontFamily=Comic Sans MS;shadow=1;" vertex="1" parent="1">
          <mxGeometry x="262" y="1094" width="60" height="90" as="geometry" />
        </mxCell>
        <mxCell id="awNUwj78HGVjr99xyrV6-2" value="&lt;span style=&quot;font-size: 21px;&quot;&gt;5&lt;/span&gt;" style="whiteSpace=wrap;html=1;aspect=fixed;fillColor=#f8cecc;strokeColor=#b85450;shadow=1;" vertex="1" parent="1">
          <mxGeometry x="542" y="1004" width="50" height="50" as="geometry" />
        </mxCell>
      </root>
    </mxGraphModel>
  </diagram>
  <diagram id="UXegYHz5sfzg4sJotecR" name="第 2 页">
    <mxGraphModel dx="1025" dy="692" grid="0" gridSize="10" guides="1" tooltips="1" connect="1" arrows="1" fold="1" page="0" pageScale="1" pageWidth="827" pageHeight="1169" math="0" shadow="0">
      <root>
        <mxCell id="0" />
        <mxCell id="1" parent="0" />
        <mxCell id="hJCCCUIi5s8Ho0yL3Wiy-1" value="" style="rounded=0;whiteSpace=wrap;html=1;dashed=1;fillColor=#d5e8d4;strokeColor=#82b366;shadow=1;" vertex="1" parent="1">
          <mxGeometry x="200" y="200" width="650" height="90" as="geometry" />
        </mxCell>
        <mxCell id="hJCCCUIi5s8Ho0yL3Wiy-2" value="&lt;span style=&quot;font-size: 21px;&quot;&gt;3&lt;/span&gt;" style="whiteSpace=wrap;html=1;aspect=fixed;fillColor=#ffe6cc;strokeColor=#d79b00;shadow=1;" vertex="1" parent="1">
          <mxGeometry x="220" y="220" width="50" height="50" as="geometry" />
        </mxCell>
        <mxCell id="hJCCCUIi5s8Ho0yL3Wiy-3" value="&lt;font style=&quot;font-size: 21px;&quot;&gt;1&lt;/font&gt;" style="whiteSpace=wrap;html=1;aspect=fixed;fillColor=#ffe6cc;strokeColor=#d79b00;shadow=1;" vertex="1" parent="1">
          <mxGeometry x="300" y="220" width="50" height="50" as="geometry" />
        </mxCell>
        <mxCell id="hJCCCUIi5s8Ho0yL3Wiy-4" value="&lt;font style=&quot;font-size: 21px;&quot;&gt;0&lt;/font&gt;" style="whiteSpace=wrap;html=1;aspect=fixed;fillColor=#ffe6cc;strokeColor=#d79b00;shadow=1;" vertex="1" parent="1">
          <mxGeometry x="380" y="220" width="50" height="50" as="geometry" />
        </mxCell>
        <mxCell id="hJCCCUIi5s8Ho0yL3Wiy-5" value="&lt;font style=&quot;font-size: 21px;&quot;&gt;4&lt;/font&gt;" style="whiteSpace=wrap;html=1;aspect=fixed;fillColor=#ffe6cc;strokeColor=#d79b00;shadow=1;" vertex="1" parent="1">
          <mxGeometry x="460" y="220" width="50" height="50" as="geometry" />
        </mxCell>
        <mxCell id="hJCCCUIi5s8Ho0yL3Wiy-6" value="&lt;font style=&quot;font-size: 21px;&quot;&gt;5&lt;/font&gt;" style="whiteSpace=wrap;html=1;aspect=fixed;fillColor=#ffe6cc;strokeColor=#d79b00;shadow=1;" vertex="1" parent="1">
          <mxGeometry x="540" y="220" width="50" height="50" as="geometry" />
        </mxCell>
        <mxCell id="hJCCCUIi5s8Ho0yL3Wiy-7" value="&lt;span style=&quot;font-size: 21px;&quot;&gt;2&lt;/span&gt;" style="whiteSpace=wrap;html=1;aspect=fixed;fillColor=#ffe6cc;strokeColor=#d79b00;shadow=1;" vertex="1" parent="1">
          <mxGeometry x="620" y="220" width="50" height="50" as="geometry" />
        </mxCell>
        <mxCell id="hJCCCUIi5s8Ho0yL3Wiy-8" value="&lt;font style=&quot;font-size: 21px;&quot;&gt;9&lt;/font&gt;" style="whiteSpace=wrap;html=1;aspect=fixed;fillColor=#ffe6cc;strokeColor=#d79b00;shadow=1;" vertex="1" parent="1">
          <mxGeometry x="700" y="220" width="50" height="50" as="geometry" />
        </mxCell>
        <mxCell id="hJCCCUIi5s8Ho0yL3Wiy-9" value="&lt;font style=&quot;font-size: 21px;&quot;&gt;12&lt;/font&gt;" style="whiteSpace=wrap;html=1;aspect=fixed;fillColor=#ffe6cc;strokeColor=#d79b00;shadow=1;" vertex="1" parent="1">
          <mxGeometry x="777" y="220" width="50" height="50" as="geometry" />
        </mxCell>
        <mxCell id="xYzYE8jC4jM5J_dXM2Cj-3" value="" style="rounded=0;whiteSpace=wrap;html=1;dashed=1;fillColor=#d5e8d4;strokeColor=#82b366;" vertex="1" parent="1">
          <mxGeometry x="200" y="380" width="320" height="80" as="geometry" />
        </mxCell>
        <mxCell id="xYzYE8jC4jM5J_dXM2Cj-1" value="" style="shape=flexArrow;endArrow=classic;html=1;rounded=0;fillColor=#dae8fc;strokeColor=#6c8ebf;shadow=1;" edge="1" parent="1">
          <mxGeometry width="50" height="50" relative="1" as="geometry">
            <mxPoint x="524.5" y="300" as="sourcePoint" />
            <mxPoint x="524.5" y="370" as="targetPoint" />
          </mxGeometry>
        </mxCell>
        <mxCell id="xYzYE8jC4jM5J_dXM2Cj-4" value="&lt;span style=&quot;font-size: 21px;&quot;&gt;3&lt;/span&gt;" style="whiteSpace=wrap;html=1;aspect=fixed;fillColor=#ffe6cc;strokeColor=#d79b00;shadow=1;" vertex="1" parent="1">
          <mxGeometry x="220" y="395" width="50" height="50" as="geometry" />
        </mxCell>
        <mxCell id="xYzYE8jC4jM5J_dXM2Cj-5" value="&lt;font style=&quot;font-size: 21px;&quot;&gt;1&lt;/font&gt;" style="whiteSpace=wrap;html=1;aspect=fixed;fillColor=#ffe6cc;strokeColor=#d79b00;shadow=1;" vertex="1" parent="1">
          <mxGeometry x="300" y="395" width="50" height="50" as="geometry" />
        </mxCell>
        <mxCell id="xYzYE8jC4jM5J_dXM2Cj-8" value="" style="rounded=0;whiteSpace=wrap;html=1;dashed=1;fillColor=#d5e8d4;strokeColor=#82b366;" vertex="1" parent="1">
          <mxGeometry x="530" y="380" width="320" height="80" as="geometry" />
        </mxCell>
        <mxCell id="xYzYE8jC4jM5J_dXM2Cj-6" value="&lt;font style=&quot;font-size: 21px;&quot;&gt;0&lt;/font&gt;" style="whiteSpace=wrap;html=1;aspect=fixed;fillColor=#ffe6cc;strokeColor=#d79b00;shadow=1;" vertex="1" parent="1">
          <mxGeometry x="380" y="395" width="50" height="50" as="geometry" />
        </mxCell>
        <mxCell id="xYzYE8jC4jM5J_dXM2Cj-7" value="&lt;font style=&quot;font-size: 21px;&quot;&gt;4&lt;/font&gt;" style="whiteSpace=wrap;html=1;aspect=fixed;fillColor=#ffe6cc;strokeColor=#d79b00;shadow=1;" vertex="1" parent="1">
          <mxGeometry x="460" y="395" width="50" height="50" as="geometry" />
        </mxCell>
        <mxCell id="xYzYE8jC4jM5J_dXM2Cj-13" value="&lt;font style=&quot;font-size: 21px;&quot;&gt;5&lt;/font&gt;" style="whiteSpace=wrap;html=1;aspect=fixed;fillColor=#ffe6cc;strokeColor=#d79b00;shadow=1;" vertex="1" parent="1">
          <mxGeometry x="540" y="395" width="50" height="50" as="geometry" />
        </mxCell>
        <mxCell id="xYzYE8jC4jM5J_dXM2Cj-14" value="&lt;span style=&quot;font-size: 21px;&quot;&gt;2&lt;/span&gt;" style="whiteSpace=wrap;html=1;aspect=fixed;fillColor=#ffe6cc;strokeColor=#d79b00;shadow=1;" vertex="1" parent="1">
          <mxGeometry x="620" y="395" width="50" height="50" as="geometry" />
        </mxCell>
        <mxCell id="xYzYE8jC4jM5J_dXM2Cj-15" value="&lt;font style=&quot;font-size: 21px;&quot;&gt;9&lt;/font&gt;" style="whiteSpace=wrap;html=1;aspect=fixed;fillColor=#ffe6cc;strokeColor=#d79b00;shadow=1;" vertex="1" parent="1">
          <mxGeometry x="700" y="395" width="50" height="50" as="geometry" />
        </mxCell>
        <mxCell id="xYzYE8jC4jM5J_dXM2Cj-16" value="&lt;font style=&quot;font-size: 21px;&quot;&gt;12&lt;/font&gt;" style="whiteSpace=wrap;html=1;aspect=fixed;fillColor=#ffe6cc;strokeColor=#d79b00;shadow=1;" vertex="1" parent="1">
          <mxGeometry x="777" y="395" width="50" height="50" as="geometry" />
        </mxCell>
        <mxCell id="xYzYE8jC4jM5J_dXM2Cj-17" value="" style="shape=flexArrow;endArrow=classic;html=1;rounded=0;fillColor=#dae8fc;strokeColor=#6c8ebf;shadow=1;" edge="1" parent="1">
          <mxGeometry width="50" height="50" relative="1" as="geometry">
            <mxPoint x="358.89" y="480" as="sourcePoint" />
            <mxPoint x="358.89" y="550" as="targetPoint" />
          </mxGeometry>
        </mxCell>
        <mxCell id="xYzYE8jC4jM5J_dXM2Cj-19" value="" style="rounded=0;whiteSpace=wrap;html=1;dashed=1;fillColor=#d5e8d4;strokeColor=#82b366;" vertex="1" parent="1">
          <mxGeometry x="200" y="560" width="160" height="70" as="geometry" />
        </mxCell>
        <mxCell id="xYzYE8jC4jM5J_dXM2Cj-18" value="" style="shape=flexArrow;endArrow=classic;html=1;rounded=0;fillColor=#dae8fc;strokeColor=#6c8ebf;shadow=1;" edge="1" parent="1">
          <mxGeometry width="50" height="50" relative="1" as="geometry">
            <mxPoint x="700" y="480" as="sourcePoint" />
            <mxPoint x="700" y="550" as="targetPoint" />
          </mxGeometry>
        </mxCell>
        <mxCell id="xYzYE8jC4jM5J_dXM2Cj-20" value="&lt;span style=&quot;font-size: 21px;&quot;&gt;3&lt;/span&gt;" style="whiteSpace=wrap;html=1;aspect=fixed;fillColor=#ffe6cc;strokeColor=#d79b00;shadow=1;" vertex="1" parent="1">
          <mxGeometry x="215" y="570" width="50" height="50" as="geometry" />
        </mxCell>
        <mxCell id="xYzYE8jC4jM5J_dXM2Cj-22" value="" style="rounded=0;whiteSpace=wrap;html=1;dashed=1;fillColor=#d5e8d4;strokeColor=#82b366;" vertex="1" parent="1">
          <mxGeometry x="370" y="560" width="150" height="70" as="geometry" />
        </mxCell>
        <mxCell id="xYzYE8jC4jM5J_dXM2Cj-21" value="&lt;font style=&quot;font-size: 21px;&quot;&gt;1&lt;/font&gt;" style="whiteSpace=wrap;html=1;aspect=fixed;fillColor=#ffe6cc;strokeColor=#d79b00;shadow=1;" vertex="1" parent="1">
          <mxGeometry x="295" y="570" width="50" height="50" as="geometry" />
        </mxCell>
        <mxCell id="xYzYE8jC4jM5J_dXM2Cj-23" value="" style="rounded=0;whiteSpace=wrap;html=1;dashed=1;fillColor=#d5e8d4;strokeColor=#82b366;" vertex="1" parent="1">
          <mxGeometry x="530" y="560" width="150" height="70" as="geometry" />
        </mxCell>
        <mxCell id="xYzYE8jC4jM5J_dXM2Cj-24" value="" style="rounded=0;whiteSpace=wrap;html=1;dashed=1;fillColor=#d5e8d4;strokeColor=#82b366;" vertex="1" parent="1">
          <mxGeometry x="700" y="560" width="150" height="70" as="geometry" />
        </mxCell>
        <mxCell id="xYzYE8jC4jM5J_dXM2Cj-25" value="&lt;font style=&quot;font-size: 21px;&quot;&gt;0&lt;/font&gt;" style="whiteSpace=wrap;html=1;aspect=fixed;fillColor=#ffe6cc;strokeColor=#d79b00;shadow=1;" vertex="1" parent="1">
          <mxGeometry x="380" y="570" width="50" height="50" as="geometry" />
        </mxCell>
        <mxCell id="xYzYE8jC4jM5J_dXM2Cj-26" value="&lt;font style=&quot;font-size: 21px;&quot;&gt;4&lt;/font&gt;" style="whiteSpace=wrap;html=1;aspect=fixed;fillColor=#ffe6cc;strokeColor=#d79b00;shadow=1;" vertex="1" parent="1">
          <mxGeometry x="460" y="570" width="50" height="50" as="geometry" />
        </mxCell>
        <mxCell id="xYzYE8jC4jM5J_dXM2Cj-27" value="&lt;font style=&quot;font-size: 21px;&quot;&gt;5&lt;/font&gt;" style="whiteSpace=wrap;html=1;aspect=fixed;fillColor=#ffe6cc;strokeColor=#d79b00;shadow=1;" vertex="1" parent="1">
          <mxGeometry x="540" y="570" width="50" height="50" as="geometry" />
        </mxCell>
        <mxCell id="xYzYE8jC4jM5J_dXM2Cj-28" value="&lt;span style=&quot;font-size: 21px;&quot;&gt;2&lt;/span&gt;" style="whiteSpace=wrap;html=1;aspect=fixed;fillColor=#ffe6cc;strokeColor=#d79b00;shadow=1;" vertex="1" parent="1">
          <mxGeometry x="620" y="570" width="50" height="50" as="geometry" />
        </mxCell>
        <mxCell id="xYzYE8jC4jM5J_dXM2Cj-29" value="&lt;font style=&quot;font-size: 21px;&quot;&gt;9&lt;/font&gt;" style="whiteSpace=wrap;html=1;aspect=fixed;fillColor=#ffe6cc;strokeColor=#d79b00;shadow=1;" vertex="1" parent="1">
          <mxGeometry x="711.5" y="570" width="50" height="50" as="geometry" />
        </mxCell>
        <mxCell id="xYzYE8jC4jM5J_dXM2Cj-30" value="&lt;font style=&quot;font-size: 21px;&quot;&gt;12&lt;/font&gt;" style="whiteSpace=wrap;html=1;aspect=fixed;fillColor=#ffe6cc;strokeColor=#d79b00;shadow=1;" vertex="1" parent="1">
          <mxGeometry x="788.5" y="570" width="50" height="50" as="geometry" />
        </mxCell>
        <mxCell id="xYzYE8jC4jM5J_dXM2Cj-31" value="" style="shape=flexArrow;endArrow=classic;html=1;rounded=0;fillColor=#dae8fc;strokeColor=#6c8ebf;shadow=1;" edge="1" parent="1">
          <mxGeometry width="50" height="50" relative="1" as="geometry">
            <mxPoint x="278.89" y="650" as="sourcePoint" />
            <mxPoint x="278.89" y="720" as="targetPoint" />
          </mxGeometry>
        </mxCell>
        <mxCell id="xYzYE8jC4jM5J_dXM2Cj-32" value="" style="shape=flexArrow;endArrow=classic;html=1;rounded=0;fillColor=#dae8fc;strokeColor=#6c8ebf;shadow=1;" edge="1" parent="1">
          <mxGeometry width="50" height="50" relative="1" as="geometry">
            <mxPoint x="443.89" y="650" as="sourcePoint" />
            <mxPoint x="443.89" y="720" as="targetPoint" />
          </mxGeometry>
        </mxCell>
        <mxCell id="xYzYE8jC4jM5J_dXM2Cj-35" value="" style="shape=flexArrow;endArrow=classic;html=1;rounded=0;fillColor=#dae8fc;strokeColor=#6c8ebf;shadow=1;" edge="1" parent="1">
          <mxGeometry width="50" height="50" relative="1" as="geometry">
            <mxPoint x="603.89" y="650" as="sourcePoint" />
            <mxPoint x="603.89" y="720" as="targetPoint" />
          </mxGeometry>
        </mxCell>
        <mxCell id="xYzYE8jC4jM5J_dXM2Cj-36" value="" style="shape=flexArrow;endArrow=classic;html=1;rounded=0;fillColor=#dae8fc;strokeColor=#6c8ebf;shadow=1;" edge="1" parent="1">
          <mxGeometry width="50" height="50" relative="1" as="geometry">
            <mxPoint x="777" y="650" as="sourcePoint" />
            <mxPoint x="777" y="720" as="targetPoint" />
          </mxGeometry>
        </mxCell>
        <mxCell id="xYzYE8jC4jM5J_dXM2Cj-37" value="&lt;span style=&quot;font-size: 21px;&quot;&gt;3&lt;/span&gt;" style="whiteSpace=wrap;html=1;aspect=fixed;fillColor=#ffe6cc;strokeColor=#d79b00;shadow=1;" vertex="1" parent="1">
          <mxGeometry x="200" y="760" width="50" height="50" as="geometry" />
        </mxCell>
        <mxCell id="xYzYE8jC4jM5J_dXM2Cj-38" value="&lt;font style=&quot;font-size: 21px;&quot;&gt;1&lt;/font&gt;" style="whiteSpace=wrap;html=1;aspect=fixed;fillColor=#ffe6cc;strokeColor=#d79b00;shadow=1;" vertex="1" parent="1">
          <mxGeometry x="290" y="760" width="50" height="50" as="geometry" />
        </mxCell>
        <mxCell id="xYzYE8jC4jM5J_dXM2Cj-39" value="&lt;font style=&quot;font-size: 21px;&quot;&gt;0&lt;/font&gt;" style="whiteSpace=wrap;html=1;aspect=fixed;fillColor=#ffe6cc;strokeColor=#d79b00;shadow=1;" vertex="1" parent="1">
          <mxGeometry x="375" y="760" width="50" height="50" as="geometry" />
        </mxCell>
        <mxCell id="xYzYE8jC4jM5J_dXM2Cj-40" value="&lt;font style=&quot;font-size: 21px;&quot;&gt;4&lt;/font&gt;" style="whiteSpace=wrap;html=1;aspect=fixed;fillColor=#ffe6cc;strokeColor=#d79b00;shadow=1;" vertex="1" parent="1">
          <mxGeometry x="455" y="760" width="50" height="50" as="geometry" />
        </mxCell>
        <mxCell id="xYzYE8jC4jM5J_dXM2Cj-41" value="&lt;font style=&quot;font-size: 21px;&quot;&gt;5&lt;/font&gt;" style="whiteSpace=wrap;html=1;aspect=fixed;fillColor=#ffe6cc;strokeColor=#d79b00;shadow=1;" vertex="1" parent="1">
          <mxGeometry x="535" y="760" width="50" height="50" as="geometry" />
        </mxCell>
        <mxCell id="xYzYE8jC4jM5J_dXM2Cj-42" value="&lt;span style=&quot;font-size: 21px;&quot;&gt;2&lt;/span&gt;" style="whiteSpace=wrap;html=1;aspect=fixed;fillColor=#ffe6cc;strokeColor=#d79b00;shadow=1;" vertex="1" parent="1">
          <mxGeometry x="620" y="760" width="50" height="50" as="geometry" />
        </mxCell>
        <mxCell id="xYzYE8jC4jM5J_dXM2Cj-43" value="&lt;font style=&quot;font-size: 21px;&quot;&gt;9&lt;/font&gt;" style="whiteSpace=wrap;html=1;aspect=fixed;fillColor=#ffe6cc;strokeColor=#d79b00;shadow=1;" vertex="1" parent="1">
          <mxGeometry x="711.5" y="760" width="50" height="50" as="geometry" />
        </mxCell>
        <mxCell id="xYzYE8jC4jM5J_dXM2Cj-44" value="&lt;font style=&quot;font-size: 21px;&quot;&gt;12&lt;/font&gt;" style="whiteSpace=wrap;html=1;aspect=fixed;fillColor=#ffe6cc;strokeColor=#d79b00;shadow=1;" vertex="1" parent="1">
          <mxGeometry x="788.5" y="760" width="50" height="50" as="geometry" />
        </mxCell>
        <mxCell id="xYzYE8jC4jM5J_dXM2Cj-45" value="&lt;font style=&quot;font-size: 19px;&quot;&gt;拆分&lt;/font&gt;" style="text;html=1;align=center;verticalAlign=middle;resizable=0;points=[];autosize=1;strokeColor=none;fillColor=none;fontSize=19;fontStyle=1" vertex="1" parent="1">
          <mxGeometry x="535" y="305" width="60" height="40" as="geometry" />
        </mxCell>
        <mxCell id="xYzYE8jC4jM5J_dXM2Cj-46" value="&lt;font style=&quot;font-size: 19px;&quot;&gt;拆分&lt;/font&gt;" style="text;html=1;align=center;verticalAlign=middle;resizable=0;points=[];autosize=1;strokeColor=none;fillColor=none;fontSize=19;fontStyle=1" vertex="1" parent="1">
          <mxGeometry x="365" y="490" width="60" height="40" as="geometry" />
        </mxCell>
        <mxCell id="xYzYE8jC4jM5J_dXM2Cj-47" value="&lt;font style=&quot;font-size: 19px;&quot;&gt;拆分&lt;/font&gt;" style="text;html=1;align=center;verticalAlign=middle;resizable=0;points=[];autosize=1;strokeColor=none;fillColor=none;fontSize=19;fontStyle=1" vertex="1" parent="1">
          <mxGeometry x="711.5" y="490" width="60" height="40" as="geometry" />
        </mxCell>
        <mxCell id="xYzYE8jC4jM5J_dXM2Cj-48" value="&lt;font style=&quot;font-size: 19px;&quot;&gt;拆分&lt;/font&gt;" style="text;html=1;align=center;verticalAlign=middle;resizable=0;points=[];autosize=1;strokeColor=none;fillColor=none;fontSize=19;fontStyle=1" vertex="1" parent="1">
          <mxGeometry x="800" y="650" width="60" height="40" as="geometry" />
        </mxCell>
        <mxCell id="xYzYE8jC4jM5J_dXM2Cj-49" value="&lt;font style=&quot;font-size: 19px;&quot;&gt;拆分&lt;/font&gt;" style="text;html=1;align=center;verticalAlign=middle;resizable=0;points=[];autosize=1;strokeColor=none;fillColor=none;fontSize=19;fontStyle=1" vertex="1" parent="1">
          <mxGeometry x="630" y="650" width="60" height="40" as="geometry" />
        </mxCell>
        <mxCell id="xYzYE8jC4jM5J_dXM2Cj-50" value="&lt;font style=&quot;font-size: 19px;&quot;&gt;拆分&lt;/font&gt;" style="text;html=1;align=center;verticalAlign=middle;resizable=0;points=[];autosize=1;strokeColor=none;fillColor=none;fontSize=19;fontStyle=1" vertex="1" parent="1">
          <mxGeometry x="455" y="650" width="60" height="40" as="geometry" />
        </mxCell>
        <mxCell id="xYzYE8jC4jM5J_dXM2Cj-51" value="&lt;font style=&quot;font-size: 19px;&quot;&gt;拆分&lt;/font&gt;" style="text;html=1;align=center;verticalAlign=middle;resizable=0;points=[];autosize=1;strokeColor=none;fillColor=none;fontSize=19;fontStyle=1" vertex="1" parent="1">
          <mxGeometry x="285" y="650" width="60" height="40" as="geometry" />
        </mxCell>
        <mxCell id="xYzYE8jC4jM5J_dXM2Cj-52" value="made by ymh" style="text;html=1;align=center;verticalAlign=middle;resizable=0;points=[];autosize=1;strokeColor=none;fillColor=none;fontFamily=Comic Sans MS;fontSize=19;" vertex="1" parent="1">
          <mxGeometry x="455" y="823" width="140" height="40" as="geometry" />
        </mxCell>
        <mxCell id="xYzYE8jC4jM5J_dXM2Cj-53" value="&lt;span style=&quot;font-size: 21px;&quot;&gt;3&lt;/span&gt;" style="whiteSpace=wrap;html=1;aspect=fixed;fillColor=#ffe6cc;strokeColor=#d79b00;shadow=1;" vertex="1" parent="1">
          <mxGeometry x="200" y="950" width="50" height="50" as="geometry" />
        </mxCell>
        <mxCell id="xYzYE8jC4jM5J_dXM2Cj-54" value="&lt;font style=&quot;font-size: 21px;&quot;&gt;1&lt;/font&gt;" style="whiteSpace=wrap;html=1;aspect=fixed;fillColor=#ffe6cc;strokeColor=#d79b00;shadow=1;" vertex="1" parent="1">
          <mxGeometry x="290" y="950" width="50" height="50" as="geometry" />
        </mxCell>
        <mxCell id="xYzYE8jC4jM5J_dXM2Cj-55" value="&lt;font style=&quot;font-size: 21px;&quot;&gt;0&lt;/font&gt;" style="whiteSpace=wrap;html=1;aspect=fixed;fillColor=#ffe6cc;strokeColor=#d79b00;shadow=1;" vertex="1" parent="1">
          <mxGeometry x="375" y="950" width="50" height="50" as="geometry" />
        </mxCell>
        <mxCell id="xYzYE8jC4jM5J_dXM2Cj-56" value="&lt;font style=&quot;font-size: 21px;&quot;&gt;4&lt;/font&gt;" style="whiteSpace=wrap;html=1;aspect=fixed;fillColor=#ffe6cc;strokeColor=#d79b00;shadow=1;" vertex="1" parent="1">
          <mxGeometry x="455" y="950" width="50" height="50" as="geometry" />
        </mxCell>
        <mxCell id="xYzYE8jC4jM5J_dXM2Cj-57" value="&lt;font style=&quot;font-size: 21px;&quot;&gt;5&lt;/font&gt;" style="whiteSpace=wrap;html=1;aspect=fixed;fillColor=#ffe6cc;strokeColor=#d79b00;shadow=1;" vertex="1" parent="1">
          <mxGeometry x="535" y="950" width="50" height="50" as="geometry" />
        </mxCell>
        <mxCell id="xYzYE8jC4jM5J_dXM2Cj-58" value="&lt;span style=&quot;font-size: 21px;&quot;&gt;2&lt;/span&gt;" style="whiteSpace=wrap;html=1;aspect=fixed;fillColor=#ffe6cc;strokeColor=#d79b00;shadow=1;" vertex="1" parent="1">
          <mxGeometry x="620" y="950" width="50" height="50" as="geometry" />
        </mxCell>
        <mxCell id="xYzYE8jC4jM5J_dXM2Cj-59" value="&lt;font style=&quot;font-size: 21px;&quot;&gt;9&lt;/font&gt;" style="whiteSpace=wrap;html=1;aspect=fixed;fillColor=#ffe6cc;strokeColor=#d79b00;shadow=1;" vertex="1" parent="1">
          <mxGeometry x="711.5" y="950" width="50" height="50" as="geometry" />
        </mxCell>
        <mxCell id="xYzYE8jC4jM5J_dXM2Cj-60" value="&lt;font style=&quot;font-size: 21px;&quot;&gt;12&lt;/font&gt;" style="whiteSpace=wrap;html=1;aspect=fixed;fillColor=#ffe6cc;strokeColor=#d79b00;shadow=1;" vertex="1" parent="1">
          <mxGeometry x="800" y="950" width="50" height="50" as="geometry" />
        </mxCell>
        <mxCell id="xYzYE8jC4jM5J_dXM2Cj-61" value="" style="shape=flexArrow;endArrow=classic;html=1;rounded=0;fillColor=#dae8fc;strokeColor=#6c8ebf;shadow=1;" edge="1" parent="1">
          <mxGeometry width="50" height="50" relative="1" as="geometry">
            <mxPoint x="265" y="1030" as="sourcePoint" />
            <mxPoint x="265" y="1100" as="targetPoint" />
          </mxGeometry>
        </mxCell>
        <mxCell id="xYzYE8jC4jM5J_dXM2Cj-62" value="" style="shape=flexArrow;endArrow=classic;html=1;rounded=0;fillColor=#dae8fc;strokeColor=#6c8ebf;shadow=1;" edge="1" parent="1">
          <mxGeometry width="50" height="50" relative="1" as="geometry">
            <mxPoint x="443.89" y="1030" as="sourcePoint" />
            <mxPoint x="443.89" y="1100" as="targetPoint" />
          </mxGeometry>
        </mxCell>
        <mxCell id="xYzYE8jC4jM5J_dXM2Cj-63" value="" style="shape=flexArrow;endArrow=classic;html=1;rounded=0;fillColor=#dae8fc;strokeColor=#6c8ebf;shadow=1;" edge="1" parent="1">
          <mxGeometry width="50" height="50" relative="1" as="geometry">
            <mxPoint x="603.89" y="1030" as="sourcePoint" />
            <mxPoint x="603.89" y="1100" as="targetPoint" />
          </mxGeometry>
        </mxCell>
        <mxCell id="xYzYE8jC4jM5J_dXM2Cj-64" value="" style="shape=flexArrow;endArrow=classic;html=1;rounded=0;fillColor=#dae8fc;strokeColor=#6c8ebf;shadow=1;" edge="1" parent="1">
          <mxGeometry width="50" height="50" relative="1" as="geometry">
            <mxPoint x="687.78" y="1190" as="sourcePoint" />
            <mxPoint x="687.78" y="1260" as="targetPoint" />
          </mxGeometry>
        </mxCell>
        <mxCell id="xYzYE8jC4jM5J_dXM2Cj-68" value="&lt;font style=&quot;font-size: 19px;&quot;&gt;比较&amp;amp;合并&lt;/font&gt;" style="text;html=1;align=center;verticalAlign=middle;resizable=0;points=[];autosize=1;strokeColor=none;fillColor=none;fontSize=19;fontStyle=1" vertex="1" parent="1">
          <mxGeometry x="155" y="1030" width="110" height="40" as="geometry" />
        </mxCell>
        <mxCell id="xYzYE8jC4jM5J_dXM2Cj-69" value="&lt;font style=&quot;font-size: 19px;&quot;&gt;比较&amp;amp;合并&lt;/font&gt;" style="text;html=1;align=center;verticalAlign=middle;resizable=0;points=[];autosize=1;strokeColor=none;fillColor=none;fontSize=19;fontStyle=1" vertex="1" parent="1">
          <mxGeometry x="340" y="1030" width="110" height="40" as="geometry" />
        </mxCell>
        <mxCell id="xYzYE8jC4jM5J_dXM2Cj-70" value="&lt;font style=&quot;font-size: 19px;&quot;&gt;比较&amp;amp;合并&lt;/font&gt;" style="text;html=1;align=center;verticalAlign=middle;resizable=0;points=[];autosize=1;strokeColor=none;fillColor=none;fontSize=19;fontStyle=1" vertex="1" parent="1">
          <mxGeometry x="500" y="1030" width="110" height="40" as="geometry" />
        </mxCell>
        <mxCell id="xYzYE8jC4jM5J_dXM2Cj-71" value="&lt;font style=&quot;font-size: 19px;&quot;&gt;比较&amp;amp;合并&lt;/font&gt;" style="text;html=1;align=center;verticalAlign=middle;resizable=0;points=[];autosize=1;strokeColor=none;fillColor=none;fontSize=19;fontStyle=1" vertex="1" parent="1">
          <mxGeometry x="577.78" y="1190" width="110" height="40" as="geometry" />
        </mxCell>
        <mxCell id="xYzYE8jC4jM5J_dXM2Cj-72" value="" style="rounded=0;whiteSpace=wrap;html=1;dashed=1;fillColor=#d5e8d4;strokeColor=#82b366;" vertex="1" parent="1">
          <mxGeometry x="200" y="1110" width="160" height="70" as="geometry" />
        </mxCell>
        <mxCell id="xYzYE8jC4jM5J_dXM2Cj-73" value="&lt;span style=&quot;font-size: 21px;&quot;&gt;1&lt;/span&gt;" style="whiteSpace=wrap;html=1;aspect=fixed;fillColor=#ffe6cc;strokeColor=#d79b00;shadow=1;" vertex="1" parent="1">
          <mxGeometry x="215" y="1120" width="50" height="50" as="geometry" />
        </mxCell>
        <mxCell id="xYzYE8jC4jM5J_dXM2Cj-74" value="" style="rounded=0;whiteSpace=wrap;html=1;dashed=1;fillColor=#d5e8d4;strokeColor=#82b366;" vertex="1" parent="1">
          <mxGeometry x="370" y="1110" width="150" height="70" as="geometry" />
        </mxCell>
        <mxCell id="xYzYE8jC4jM5J_dXM2Cj-75" value="&lt;font style=&quot;font-size: 21px;&quot;&gt;3&lt;/font&gt;" style="whiteSpace=wrap;html=1;aspect=fixed;fillColor=#ffe6cc;strokeColor=#d79b00;shadow=1;" vertex="1" parent="1">
          <mxGeometry x="295" y="1120" width="50" height="50" as="geometry" />
        </mxCell>
        <mxCell id="xYzYE8jC4jM5J_dXM2Cj-76" value="" style="rounded=0;whiteSpace=wrap;html=1;dashed=1;fillColor=#d5e8d4;strokeColor=#82b366;" vertex="1" parent="1">
          <mxGeometry x="530" y="1110" width="150" height="70" as="geometry" />
        </mxCell>
        <mxCell id="xYzYE8jC4jM5J_dXM2Cj-77" value="" style="rounded=0;whiteSpace=wrap;html=1;dashed=1;fillColor=#d5e8d4;strokeColor=#82b366;" vertex="1" parent="1">
          <mxGeometry x="700" y="1110" width="150" height="70" as="geometry" />
        </mxCell>
        <mxCell id="xYzYE8jC4jM5J_dXM2Cj-78" value="&lt;font style=&quot;font-size: 21px;&quot;&gt;0&lt;/font&gt;" style="whiteSpace=wrap;html=1;aspect=fixed;fillColor=#ffe6cc;strokeColor=#d79b00;shadow=1;" vertex="1" parent="1">
          <mxGeometry x="380" y="1120" width="50" height="50" as="geometry" />
        </mxCell>
        <mxCell id="xYzYE8jC4jM5J_dXM2Cj-79" value="&lt;font style=&quot;font-size: 21px;&quot;&gt;4&lt;/font&gt;" style="whiteSpace=wrap;html=1;aspect=fixed;fillColor=#ffe6cc;strokeColor=#d79b00;shadow=1;" vertex="1" parent="1">
          <mxGeometry x="460" y="1120" width="50" height="50" as="geometry" />
        </mxCell>
        <mxCell id="xYzYE8jC4jM5J_dXM2Cj-80" value="&lt;font style=&quot;font-size: 21px;&quot;&gt;2&lt;/font&gt;" style="whiteSpace=wrap;html=1;aspect=fixed;fillColor=#ffe6cc;strokeColor=#d79b00;shadow=1;" vertex="1" parent="1">
          <mxGeometry x="540" y="1120" width="50" height="50" as="geometry" />
        </mxCell>
        <mxCell id="xYzYE8jC4jM5J_dXM2Cj-81" value="&lt;span style=&quot;font-size: 21px;&quot;&gt;5&lt;/span&gt;" style="whiteSpace=wrap;html=1;aspect=fixed;fillColor=#ffe6cc;strokeColor=#d79b00;shadow=1;" vertex="1" parent="1">
          <mxGeometry x="620" y="1120" width="50" height="50" as="geometry" />
        </mxCell>
        <mxCell id="xYzYE8jC4jM5J_dXM2Cj-82" value="&lt;font style=&quot;font-size: 21px;&quot;&gt;9&lt;/font&gt;" style="whiteSpace=wrap;html=1;aspect=fixed;fillColor=#ffe6cc;strokeColor=#d79b00;shadow=1;" vertex="1" parent="1">
          <mxGeometry x="711.5" y="1120" width="50" height="50" as="geometry" />
        </mxCell>
        <mxCell id="xYzYE8jC4jM5J_dXM2Cj-83" value="&lt;font style=&quot;font-size: 21px;&quot;&gt;12&lt;/font&gt;" style="whiteSpace=wrap;html=1;aspect=fixed;fillColor=#ffe6cc;strokeColor=#d79b00;shadow=1;" vertex="1" parent="1">
          <mxGeometry x="788.5" y="1120" width="50" height="50" as="geometry" />
        </mxCell>
        <mxCell id="xYzYE8jC4jM5J_dXM2Cj-86" value="" style="rounded=0;whiteSpace=wrap;html=1;dashed=1;fillColor=#d5e8d4;strokeColor=#82b366;" vertex="1" parent="1">
          <mxGeometry x="200" y="1260" width="320" height="80" as="geometry" />
        </mxCell>
        <mxCell id="xYzYE8jC4jM5J_dXM2Cj-87" value="&lt;span style=&quot;font-size: 21px;&quot;&gt;0&lt;/span&gt;" style="whiteSpace=wrap;html=1;aspect=fixed;fillColor=#ffe6cc;strokeColor=#d79b00;shadow=1;" vertex="1" parent="1">
          <mxGeometry x="220" y="1275" width="50" height="50" as="geometry" />
        </mxCell>
        <mxCell id="xYzYE8jC4jM5J_dXM2Cj-88" value="&lt;span style=&quot;font-size: 21px;&quot;&gt;1&lt;/span&gt;" style="whiteSpace=wrap;html=1;aspect=fixed;fillColor=#ffe6cc;strokeColor=#d79b00;shadow=1;" vertex="1" parent="1">
          <mxGeometry x="300" y="1275" width="50" height="50" as="geometry" />
        </mxCell>
        <mxCell id="xYzYE8jC4jM5J_dXM2Cj-89" value="" style="rounded=0;whiteSpace=wrap;html=1;dashed=1;fillColor=#d5e8d4;strokeColor=#82b366;" vertex="1" parent="1">
          <mxGeometry x="530" y="1260" width="320" height="80" as="geometry" />
        </mxCell>
        <mxCell id="xYzYE8jC4jM5J_dXM2Cj-90" value="&lt;font style=&quot;font-size: 21px;&quot;&gt;3&lt;/font&gt;" style="whiteSpace=wrap;html=1;aspect=fixed;fillColor=#ffe6cc;strokeColor=#d79b00;shadow=1;" vertex="1" parent="1">
          <mxGeometry x="380" y="1275" width="50" height="50" as="geometry" />
        </mxCell>
        <mxCell id="xYzYE8jC4jM5J_dXM2Cj-91" value="&lt;font style=&quot;font-size: 21px;&quot;&gt;4&lt;/font&gt;" style="whiteSpace=wrap;html=1;aspect=fixed;fillColor=#ffe6cc;strokeColor=#d79b00;shadow=1;" vertex="1" parent="1">
          <mxGeometry x="460" y="1275" width="50" height="50" as="geometry" />
        </mxCell>
        <mxCell id="xYzYE8jC4jM5J_dXM2Cj-92" value="&lt;font style=&quot;font-size: 21px;&quot;&gt;2&lt;/font&gt;" style="whiteSpace=wrap;html=1;aspect=fixed;fillColor=#ffe6cc;strokeColor=#d79b00;shadow=1;" vertex="1" parent="1">
          <mxGeometry x="540" y="1275" width="50" height="50" as="geometry" />
        </mxCell>
        <mxCell id="xYzYE8jC4jM5J_dXM2Cj-93" value="&lt;span style=&quot;font-size: 21px;&quot;&gt;5&lt;/span&gt;" style="whiteSpace=wrap;html=1;aspect=fixed;fillColor=#ffe6cc;strokeColor=#d79b00;shadow=1;" vertex="1" parent="1">
          <mxGeometry x="620" y="1275" width="50" height="50" as="geometry" />
        </mxCell>
        <mxCell id="xYzYE8jC4jM5J_dXM2Cj-94" value="&lt;font style=&quot;font-size: 21px;&quot;&gt;9&lt;/font&gt;" style="whiteSpace=wrap;html=1;aspect=fixed;fillColor=#ffe6cc;strokeColor=#d79b00;shadow=1;" vertex="1" parent="1">
          <mxGeometry x="700" y="1275" width="50" height="50" as="geometry" />
        </mxCell>
        <mxCell id="xYzYE8jC4jM5J_dXM2Cj-95" value="&lt;font style=&quot;font-size: 21px;&quot;&gt;12&lt;/font&gt;" style="whiteSpace=wrap;html=1;aspect=fixed;fillColor=#ffe6cc;strokeColor=#d79b00;shadow=1;" vertex="1" parent="1">
          <mxGeometry x="777" y="1275" width="50" height="50" as="geometry" />
        </mxCell>
        <mxCell id="xYzYE8jC4jM5J_dXM2Cj-96" value="" style="shape=flexArrow;endArrow=classic;html=1;rounded=0;fillColor=#dae8fc;strokeColor=#6c8ebf;shadow=1;" edge="1" parent="1">
          <mxGeometry width="50" height="50" relative="1" as="geometry">
            <mxPoint x="362.78" y="1190" as="sourcePoint" />
            <mxPoint x="362.78" y="1260" as="targetPoint" />
          </mxGeometry>
        </mxCell>
        <mxCell id="xYzYE8jC4jM5J_dXM2Cj-97" value="&lt;font style=&quot;font-size: 19px;&quot;&gt;比较&amp;amp;合并&lt;/font&gt;" style="text;html=1;align=center;verticalAlign=middle;resizable=0;points=[];autosize=1;strokeColor=none;fillColor=none;fontSize=19;fontStyle=1" vertex="1" parent="1">
          <mxGeometry x="252.77999999999997" y="1190" width="110" height="40" as="geometry" />
        </mxCell>
        <mxCell id="xYzYE8jC4jM5J_dXM2Cj-116" value="" style="rounded=0;whiteSpace=wrap;html=1;dashed=1;fillColor=#d5e8d4;strokeColor=#82b366;shadow=1;" vertex="1" parent="1">
          <mxGeometry x="200" y="1430" width="650" height="90" as="geometry" />
        </mxCell>
        <mxCell id="xYzYE8jC4jM5J_dXM2Cj-117" value="&lt;span style=&quot;font-size: 21px;&quot;&gt;0&lt;/span&gt;" style="whiteSpace=wrap;html=1;aspect=fixed;fillColor=#ffe6cc;strokeColor=#d79b00;shadow=1;" vertex="1" parent="1">
          <mxGeometry x="220" y="1450" width="50" height="50" as="geometry" />
        </mxCell>
        <mxCell id="xYzYE8jC4jM5J_dXM2Cj-118" value="&lt;font style=&quot;font-size: 21px;&quot;&gt;1&lt;/font&gt;" style="whiteSpace=wrap;html=1;aspect=fixed;fillColor=#ffe6cc;strokeColor=#d79b00;shadow=1;" vertex="1" parent="1">
          <mxGeometry x="300" y="1450" width="50" height="50" as="geometry" />
        </mxCell>
        <mxCell id="xYzYE8jC4jM5J_dXM2Cj-119" value="&lt;font style=&quot;font-size: 21px;&quot;&gt;2&lt;/font&gt;" style="whiteSpace=wrap;html=1;aspect=fixed;fillColor=#ffe6cc;strokeColor=#d79b00;shadow=1;" vertex="1" parent="1">
          <mxGeometry x="380" y="1450" width="50" height="50" as="geometry" />
        </mxCell>
        <mxCell id="xYzYE8jC4jM5J_dXM2Cj-120" value="&lt;font style=&quot;font-size: 21px;&quot;&gt;3&lt;/font&gt;" style="whiteSpace=wrap;html=1;aspect=fixed;fillColor=#ffe6cc;strokeColor=#d79b00;shadow=1;" vertex="1" parent="1">
          <mxGeometry x="460" y="1450" width="50" height="50" as="geometry" />
        </mxCell>
        <mxCell id="xYzYE8jC4jM5J_dXM2Cj-121" value="&lt;font style=&quot;font-size: 21px;&quot;&gt;4&lt;/font&gt;" style="whiteSpace=wrap;html=1;aspect=fixed;fillColor=#ffe6cc;strokeColor=#d79b00;shadow=1;" vertex="1" parent="1">
          <mxGeometry x="540" y="1450" width="50" height="50" as="geometry" />
        </mxCell>
        <mxCell id="xYzYE8jC4jM5J_dXM2Cj-122" value="&lt;span style=&quot;font-size: 21px;&quot;&gt;5&lt;/span&gt;" style="whiteSpace=wrap;html=1;aspect=fixed;fillColor=#ffe6cc;strokeColor=#d79b00;shadow=1;" vertex="1" parent="1">
          <mxGeometry x="620" y="1450" width="50" height="50" as="geometry" />
        </mxCell>
        <mxCell id="xYzYE8jC4jM5J_dXM2Cj-123" value="&lt;font style=&quot;font-size: 21px;&quot;&gt;9&lt;/font&gt;" style="whiteSpace=wrap;html=1;aspect=fixed;fillColor=#ffe6cc;strokeColor=#d79b00;shadow=1;" vertex="1" parent="1">
          <mxGeometry x="700" y="1450" width="50" height="50" as="geometry" />
        </mxCell>
        <mxCell id="xYzYE8jC4jM5J_dXM2Cj-124" value="&lt;font style=&quot;font-size: 21px;&quot;&gt;12&lt;/font&gt;" style="whiteSpace=wrap;html=1;aspect=fixed;fillColor=#ffe6cc;strokeColor=#d79b00;shadow=1;" vertex="1" parent="1">
          <mxGeometry x="777" y="1450" width="50" height="50" as="geometry" />
        </mxCell>
        <mxCell id="xYzYE8jC4jM5J_dXM2Cj-125" value="" style="shape=flexArrow;endArrow=classic;html=1;rounded=0;fillColor=#dae8fc;strokeColor=#6c8ebf;shadow=1;" edge="1" parent="1">
          <mxGeometry width="50" height="50" relative="1" as="geometry">
            <mxPoint x="786.28" y="1030" as="sourcePoint" />
            <mxPoint x="786.28" y="1100" as="targetPoint" />
          </mxGeometry>
        </mxCell>
        <mxCell id="xYzYE8jC4jM5J_dXM2Cj-126" value="&lt;font style=&quot;font-size: 19px;&quot;&gt;比较&amp;amp;合并&lt;/font&gt;" style="text;html=1;align=center;verticalAlign=middle;resizable=0;points=[];autosize=1;strokeColor=none;fillColor=none;fontSize=19;fontStyle=1" vertex="1" parent="1">
          <mxGeometry x="676.28" y="1030" width="110" height="40" as="geometry" />
        </mxCell>
        <mxCell id="xYzYE8jC4jM5J_dXM2Cj-127" value="" style="shape=flexArrow;endArrow=classic;html=1;rounded=0;fillColor=#dae8fc;strokeColor=#6c8ebf;shadow=1;" edge="1" parent="1">
          <mxGeometry width="50" height="50" relative="1" as="geometry">
            <mxPoint x="527.78" y="1350" as="sourcePoint" />
            <mxPoint x="527.78" y="1420" as="targetPoint" />
          </mxGeometry>
        </mxCell>
        <mxCell id="xYzYE8jC4jM5J_dXM2Cj-128" value="&lt;font style=&quot;font-size: 19px;&quot;&gt;比较&amp;amp;合并&lt;/font&gt;" style="text;html=1;align=center;verticalAlign=middle;resizable=0;points=[];autosize=1;strokeColor=none;fillColor=none;fontSize=19;fontStyle=1" vertex="1" parent="1">
          <mxGeometry x="417.78" y="1350" width="110" height="40" as="geometry" />
        </mxCell>
        <mxCell id="xYzYE8jC4jM5J_dXM2Cj-129" value="made by ymh" style="text;html=1;align=center;verticalAlign=middle;resizable=0;points=[];autosize=1;strokeColor=none;fillColor=none;fontFamily=Comic Sans MS;fontSize=19;" vertex="1" parent="1">
          <mxGeometry x="455" y="1520" width="140" height="40" as="geometry" />
        </mxCell>
      </root>
    </mxGraphModel>
  </diagram>
</mxfile>
